<?xml version="1.0" encoding="UTF-8"?>
<svg width="365px" height="194px" viewBox="0 0 365 194" version="1.1" xmlns="http://www.w3.org/2000/svg" xmlns:xlink="http://www.w3.org/1999/xlink">
    <title>mainLogo</title>
    <defs>
        <filter x="-8.6%" y="-27.6%" width="117.2%" height="155.1%" filterUnits="objectBoundingBox" id="filter-1">
            <feOffset dx="5" dy="5" in="SourceAlpha" result="shadowOffsetOuter1"></feOffset>
            <feGaussianBlur stdDeviation="5" in="shadowOffsetOuter1" result="shadowBlurOuter1"></feGaussianBlur>
            <feColorMatrix values="0 0 0 0 0   0 0 0 0 0   0 0 0 0 0  0 0 0 0.216919799 0" type="matrix" in="shadowBlurOuter1" result="shadowMatrixOuter1"></feColorMatrix>
            <feMerge>
                <feMergeNode in="shadowMatrixOuter1"></feMergeNode>
                <feMergeNode in="SourceGraphic"></feMergeNode>
            </feMerge>
        </filter>
        <linearGradient x1="232.574225%" y1="130.596159%" x2="232.574225%" y2="-25.1536891%" id="linearGradient-2">
            <stop stop-color="#A2A2A2" offset="0%"></stop>
            <stop stop-color="#D4D4D4" offset="100%"></stop>
        </linearGradient>
        <linearGradient x1="232.574225%" y1="130.596159%" x2="232.574225%" y2="-25.1536891%" id="linearGradient-3">
            <stop stop-color="#A2A2A2" offset="0%"></stop>
            <stop stop-color="#D4D4D4" offset="100%"></stop>
        </linearGradient>
        <linearGradient x1="232.574225%" y1="130.596159%" x2="232.574225%" y2="-25.1536891%" id="linearGradient-4">
            <stop stop-color="#A2A2A2" offset="0%"></stop>
            <stop stop-color="#D4D4D4" offset="100%"></stop>
        </linearGradient>
        <linearGradient x1="39.238829%" y1="0%" x2="63.8458536%" y2="100%" id="linearGradient-5">
            <stop stop-color="#00A8FF" offset="0%"></stop>
            <stop stop-color="#FF0076" offset="100%"></stop>
        </linearGradient>
        <linearGradient x1="232.574225%" y1="130.596159%" x2="232.574225%" y2="-25.1536891%" id="linearGradient-6">
            <stop stop-color="#A2A2A2" offset="0%"></stop>
            <stop stop-color="#D4D4D4" offset="100%"></stop>
        </linearGradient>
        <linearGradient x1="232.574225%" y1="130.596159%" x2="232.574225%" y2="-25.1536891%" id="linearGradient-7">
            <stop stop-color="#A2A2A2" offset="0%"></stop>
            <stop stop-color="#D4D4D4" offset="100%"></stop>
        </linearGradient>
        <linearGradient x1="50%" y1="36.3426236%" x2="50%" y2="100%" id="linearGradient-8">
            <stop stop-color="#0E9FF7" stop-opacity="0.783763112" offset="0%"></stop>
            <stop stop-color="#FF0076" stop-opacity="0.798459353" offset="100%"></stop>
        </linearGradient>
    </defs>
    <g id="mainLogo" stroke="none" stroke-width="1" fill="none" fill-rule="evenodd">
        <g id="Group" filter="url(#filter-1)" transform="translate(0.000000, 73.000000)" fill-rule="nonzero">
            <path d="M124.203852,32 C127.055645,32 129.742911,32.5383173 132.26565,33.6149518 C134.78839,34.6915863 136.993044,36.1527331 138.879615,37.9983923 C140.766185,39.8440514 142.257892,42.0083065 143.354735,44.4911576 C144.451578,46.9740086 145,49.6436227 145,52.5 C145,55.2684887 144.451578,57.8941586 143.354735,60.3770096 C142.257892,62.8598607 140.777154,65.0351018 138.91252,66.9027331 C137.047887,68.7703644 134.887105,70.2534834 132.430177,71.35209 C129.973248,72.4506967 127.384698,73 124.664526,73 C121.812734,73 119.136437,72.4726688 116.635634,71.4180064 C114.134831,70.3633441 111.941145,68.9131833 110.054575,67.0675241 C108.168004,65.221865 106.687266,63.0576099 105.61236,60.5747588 C104.537453,58.0919078 104,55.4003215 104,52.5 C104,49.7315113 104.548422,47.1058414 105.645265,44.6229904 C106.742108,42.1401393 108.211878,39.9648982 110.054575,38.0972669 C111.897271,36.2296356 114.036116,34.7465166 116.471108,33.64791 C118.9061,32.5493033 121.483681,32 124.203852,32 Z M124.467095,49.1382637 C123.501873,49.1382637 122.690209,49.4348875 122.032103,50.028135 C121.373997,50.6213826 121.044944,51.4453376 121.044944,52.5 C121.044944,53.5546624 121.373997,54.3786174 122.032103,54.971865 C122.690209,55.5651125 123.501873,55.8617363 124.467095,55.8617363 C125.388443,55.8617363 126.17817,55.5651125 126.836276,54.971865 C127.494382,54.3786174 127.823435,53.5546624 127.823435,52.5 C127.823435,51.4453376 127.494382,50.6213826 126.836276,50.028135 C126.17817,49.4348875 125.388443,49.1382637 124.467095,49.1382637 Z" id="Combined-Shape" fill="url(#linearGradient-2)"></path>
            <path d="M20.5534709,73 C26.1569731,73 30.9724828,71.0005359 35,67.0016077 L35,67.0016077 L22.9174484,54.8729904 C22.260788,55.5760986 21.4509068,55.9276527 20.4878049,55.9276527 C19.5684803,55.9276527 18.7695435,55.5870847 18.0909944,54.9059486 C17.4124453,54.2248124 17.0731707,53.4448017 17.0731707,52.5659164 C17.0731707,51.6430868 17.434334,50.8301179 18.1566604,50.1270096 C18.8789869,49.4239014 19.6998124,49.0723473 20.619137,49.0723473 C21.4946842,49.0723473 22.260788,49.4239014 22.9174484,50.1270096 L22.9174484,50.1270096 L35,37.9983923 C30.9724828,33.9994641 26.1569731,32 20.5534709,32 C17.7079425,32 15.0375235,32.5493033 12.5422139,33.64791 C10.0469043,34.7465166 7.86898061,36.2406217 6.00844278,38.1302251 C4.14790494,40.0198285 2.68136335,42.2170418 1.60881801,44.721865 C0.53627267,47.2266881 0,49.8853162 0,52.6977492 C0,55.4222937 0.547217011,58.0150054 1.64165103,60.4758842 C2.73608505,62.9367631 4.21357098,65.0900322 6.07410882,66.9356913 C7.93464665,68.7813505 10.1125704,70.2534834 12.6078799,71.35209 C15.1031895,72.4506967 17.7517198,73 20.5534709,73 Z" id="Path" fill="url(#linearGradient-3)"></path>
            <path d="M52.2696629,31 C55.0775816,31 57.7429106,31.502451 60.2656501,32.5073529 C62.7883895,33.5122549 64.9930444,34.9191176 66.8796148,36.7279412 C68.7661851,38.5367647 70.2578919,40.7252179 71.3547352,43.2933007 C72.4515784,45.8613834 73,48.7086057 73,51.8349673 L73,51.8349673 L88,72 L52.4670947,72 C49.659176,72 47.0157838,71.497549 44.5369181,70.4926471 C42.0580524,69.4877451 39.8863028,68.0808824 38.0216693,66.2720588 C36.1570358,64.4632353 34.6872659,62.33061 33.6123596,59.874183 C32.5374532,57.417756 32,54.7380174 32,51.8349673 C32,48.5746187 32.5484216,45.6604031 33.6452648,43.0923203 C34.7421081,40.5242375 36.211878,38.3469499 38.0545746,36.5604575 C39.8972713,34.7739651 42.047084,33.4005991 44.5040128,32.4403595 C46.9609417,31.4801198 49.5494917,31 52.2696629,31 Z M52.4670947,48.4183007 C51.5018727,48.4183007 50.6902087,48.7197712 50.0321027,49.3227124 C49.3739968,49.9256536 49.0449438,50.7630719 49.0449438,51.8349673 C49.0449438,52.9068627 49.3739968,53.744281 50.0321027,54.3472222 C50.6902087,54.9501634 51.5018727,55.251634 52.4670947,55.251634 C53.388443,55.251634 54.1781701,54.9501634 54.8362761,54.3472222 C55.494382,53.744281 55.823435,52.9068627 55.823435,51.8349673 C55.823435,50.7630719 55.494382,49.9256536 54.8362761,49.3227124 C54.1781701,48.7197712 53.388443,48.4183007 52.4670947,48.4183007 Z" id="Combined-Shape" fill="url(#linearGradient-4)"></path>
            <path d="M110,107 C100.549991,107 92.8892456,99.3392543 92.8892456,89.8892456 L92.8892456,74.8271493 L92.3591047,74.9078934 C92.00324,74.9568292 91.6425004,74.9959779 91.276886,75.0253394 C90.7284644,75.0693816 90.1252006,75.0914027 89.4670947,75.0914027 C86.7030498,75.0914027 84.0815944,74.5518854 81.6027287,73.4728507 C79.123863,72.393816 76.9521134,70.9184012 75.0874799,69.0466063 C73.2228464,67.1748115 71.7421081,64.994721 70.6452648,62.5063348 C69.5484216,60.0179487 69,57.3644042 69,54.5457014 C69,51.7269985 69.5374532,49.073454 70.6123596,46.5850679 C71.6872659,44.0966817 73.1570358,41.9165913 75.0216693,40.0447964 C76.8863028,38.1730015 79.0690209,36.6975867 81.5698234,35.618552 C84.070626,34.5395173 86.7249866,34 89.5329053,34 C92.340824,34 94.9842162,34.5395173 97.4630819,35.618552 C99.9419476,36.6975867 102.113697,38.1730015 103.978331,40.0447964 C105.842964,41.9165913 107.312734,44.0966817 108.38764,46.5850679 C109.395365,48.9179299 109.930719,51.3959506 109.993702,54.01913 L110,54.5457014 L110,107 Z M89.5329053,51.1764706 C88.5676833,51.1764706 87.7560193,51.4737557 87.0979133,52.0683258 C86.4398074,52.6628959 86.1107544,53.4886878 86.1107544,54.5457014 C86.1107544,55.6027149 86.4398074,56.4285068 87.0979133,57.0230769 C87.7560193,57.6176471 88.5676833,57.9149321 89.5329053,57.9149321 C90.4542536,57.9149321 91.2439807,57.6176471 91.9020867,57.0230769 C92.5601926,56.4285068 92.8892456,55.6027149 92.8892456,54.5457014 C92.8892456,53.4886878 92.5601926,52.6628959 91.9020867,52.0683258 C91.2439807,51.4737557 90.4542536,51.1764706 89.5329053,51.1764706 Z" id="Combined-Shape" fill="url(#linearGradient-5)"></path>
            <path d="M193.110754,72 L193.110754,50.7725018 C193.110754,49.7111269 193.439807,48.8819277 194.097913,48.2849043 C194.756019,47.6878809 195.567683,47.3893692 196.532905,47.3893692 C197.454254,47.3893692 198.243981,47.6878809 198.902087,48.2849043 C199.560193,48.8819277 199.889246,49.7111269 199.889246,50.7725018 L199.889246,72 L217,72 L217,50.8388377 C217,44.6032601 215.552167,39.804961 212.656501,36.4439405 C209.760835,33.0829199 205.834136,31.4024096 200.876404,31.4024096 C199.472445,31.4024096 198.331728,31.4466336 197.454254,31.5350815 C196.576779,31.6235294 195.863831,31.7230333 195.315409,31.8335932 C194.766988,31.9441531 194.32825,32.0768249 193.999197,32.2316088 C193.670144,32.3863926 193.373997,32.5301205 193.110754,32.6627923 L193.110754,0 C183.660746,1.73593844e-15 176,7.66074569 176,17.1107544 L176,50.4846788 L176,50.4846788 L161,72 L193.110754,72 Z" id="Path" fill="url(#linearGradient-6)"></path>
            <path d="M238.203852,32 C241.055645,32 243.742911,32.5383173 246.26565,33.6149518 C248.78839,34.6915863 250.993044,36.1527331 252.879615,37.9983923 C254.766185,39.8440514 256.257892,42.0083065 257.354735,44.4911576 C258.451578,46.9740086 259,49.6436227 259,52.5 C259,55.2684887 258.451578,57.8941586 257.354735,60.3770096 C256.257892,62.8598607 254.777154,65.0351018 252.91252,66.9027331 C251.047887,68.7703644 248.887105,70.2534834 246.430177,71.35209 C243.973248,72.4506967 241.384698,73 238.664526,73 C235.812734,73 233.136437,72.4726688 230.635634,71.4180064 C228.134831,70.3633441 225.941145,68.9131833 224.054575,67.0675241 C222.168004,65.221865 220.687266,63.0576099 219.61236,60.5747588 C218.537453,58.0919078 218,55.4003215 218,52.5 C218,49.7315113 218.548422,47.1058414 219.645265,44.6229904 C220.742108,42.1401393 222.211878,39.9648982 224.054575,38.0972669 C225.897271,36.2296356 228.036116,34.7465166 230.471108,33.64791 C232.9061,32.5493033 235.483681,32 238.203852,32 Z M238.467095,49.1382637 C237.501873,49.1382637 236.690209,49.4348875 236.032103,50.028135 C235.373997,50.6213826 235.044944,51.4453376 235.044944,52.5 C235.044944,53.5546624 235.373997,54.3786174 236.032103,54.971865 C236.690209,55.5651125 237.501873,55.8617363 238.467095,55.8617363 C239.388443,55.8617363 240.17817,55.5651125 240.836276,54.971865 C241.494382,54.3786174 241.823435,53.5546624 241.823435,52.5 C241.823435,51.4453376 241.494382,50.6213826 240.836276,50.028135 C240.17817,49.4348875 239.388443,49.1382637 238.467095,49.1382637 Z" id="Combined-Shape" fill="url(#linearGradient-2)"></path>
            <path d="M277.110754,72 L277.110754,51.8009788 C277.110754,50.730832 277.428839,49.8836324 278.065008,49.2593801 C278.701177,48.6351278 279.501873,48.3230016 280.467095,48.3230016 C281.388443,48.3230016 282.17817,48.6351278 282.836276,49.2593801 C283.494382,49.8836324 283.823435,50.730832 283.823435,51.8009788 L283.823435,51.8009788 L283.823435,72 L301,72 L301,51.8009788 C301,48.9026645 300.528357,46.1938554 299.585072,43.6745514 C298.641787,41.1552474 297.281701,38.959217 295.504815,37.08646 C293.727929,35.2137031 291.55618,33.7311039 288.989567,32.6386623 C286.422953,31.5462208 283.516319,31 280.269663,31 C277.023007,31 274.149278,31.5462208 271.648475,32.6386623 C269.147673,33.7311039 267.030765,35.2248505 265.297753,37.1199021 C263.564741,39.0149538 262.248529,41.2221316 261.349117,43.7414356 C260.449706,46.2607395 260,48.9472539 260,51.8009788 L260,51.8009788 L260,72 L277.110754,72 Z" id="Path" fill="url(#linearGradient-2)"></path>
            <path d="M343,89.8617363 L343,32 L343,32 L325.861736,32 L325.861736,52.0820457 C325.861736,53.1495299 325.532154,53.9835019 324.87299,54.5839617 C324.213826,55.1844216 323.42283,55.4846515 322.5,55.4846515 C321.533226,55.4846515 320.720257,55.1844216 320.061093,54.5839617 C319.401929,53.9835019 319.072347,53.1495299 319.072347,52.0820457 L319.072347,32 L302,32 L302,52.0820457 C302,54.9286702 302.395498,57.6085002 303.186495,60.1215358 C303.977492,62.6345714 305.218917,64.8362575 306.910772,66.726594 C308.602626,68.6169306 310.733923,70.1069605 313.304662,71.196684 C315.875402,72.2864074 318.940514,72.8312691 322.5,72.8312691 C323.730439,72.8312691 324.851018,72.7423121 325.861736,72.564398 L325.861736,107 C335.326938,107 343,99.326938 343,89.8617363 Z" id="Path" fill="url(#linearGradient-7)"></path>
            <path d="M179,107 C169.549991,107 161.889246,99.3392543 161.889246,89.8892456 L161.889246,74.8271493 L161.359105,74.9078934 C161.00324,74.9568292 160.6425,74.9959779 160.276886,75.0253394 C159.728464,75.0693816 159.125201,75.0914027 158.467095,75.0914027 C155.70305,75.0914027 153.081594,74.5518854 150.602729,73.4728507 C148.123863,72.393816 145.952113,70.9184012 144.08748,69.0466063 C142.222846,67.1748115 140.742108,64.994721 139.645265,62.5063348 C138.548422,60.0179487 138,57.3644042 138,54.5457014 C138,51.7269985 138.537453,49.073454 139.61236,46.5850679 C140.687266,44.0966817 142.157036,41.9165913 144.021669,40.0447964 C145.886303,38.1730015 148.069021,36.6975867 150.569823,35.618552 C153.070626,34.5395173 155.724987,34 158.532905,34 C161.340824,34 163.984216,34.5395173 166.463082,35.618552 C168.941948,36.6975867 171.113697,38.1730015 172.978331,40.0447964 C174.842964,41.9165913 176.312734,44.0966817 177.38764,46.5850679 C178.395365,48.9179299 178.930719,51.3959506 178.993702,54.01913 L179,54.5457014 L179,107 Z M158.532905,51.1764706 C157.567683,51.1764706 156.756019,51.4737557 156.097913,52.0683258 C155.439807,52.6628959 155.110754,53.4886878 155.110754,54.5457014 C155.110754,55.6027149 155.439807,56.4285068 156.097913,57.0230769 C156.756019,57.6176471 157.567683,57.9149321 158.532905,57.9149321 C159.454254,57.9149321 160.243981,57.6176471 160.902087,57.0230769 C161.560193,56.4285068 161.889246,55.6027149 161.889246,54.5457014 C161.889246,53.4886878 161.560193,52.6628959 160.902087,52.0683258 C160.243981,51.4737557 159.454254,51.1764706 158.532905,51.1764706 Z" id="Combined-Shape-Copy-2" fill="url(#linearGradient-5)" transform="translate(158.500000, 70.500000) scale(-1, 1) translate(-158.500000, -70.500000) "></path>
        </g>
        <g id="alienBroken" transform="translate(235.000000, 0.000000)" fill="url(#linearGradient-8)">
            <g id="Group-2">
                <path d="M51.8474576,78.75 L51.8474576,80.0169492 C51.8474576,85.5304359 47.3778935,90 41.8644068,90 C36.35092,90 31.8813559,85.5304359 31.8813559,80.0169492 L31.8813559,78.75 L51.8474576,78.75 Z M82.1186441,78.75 L82.1186441,80.0169492 C82.1186441,85.5304359 77.64908,90 72.1355932,90 C66.6221065,90 62.1525424,85.5304359 62.1525424,80.0169492 L62.1525424,78.75 L82.1186441,78.75 Z M9.98305085,45.3629032 L9.98305085,78.75 C4.46956411,78.75 -1.10114945e-15,74.2804359 0,68.7669492 L0,55.3459541 C-2.41001229e-15,49.9259163 4.31933745,45.5147138 9.70362042,45.3667385 L9.98305085,45.3629032 Z M104.016949,45.3629032 C109.530436,45.3629032 114,49.8324673 114,55.3459541 L114,68.7669492 C114,74.186987 109.680663,78.5981895 104.29638,78.7461647 L104.016949,78.75 L104.016949,45.3629032 Z M21.8983051,11.25 L21.8983051,9.98305085 C21.8983051,4.56301304 26.2176425,0.151810539 31.6019255,0.00383528601 L31.8813559,0 L31.8813559,11.25 L31.9628131,11.25 L31.9628131,11.25 L31.962,11.251 L32.1607864,11.2538353 C37.5450693,11.4018105 41.8644068,15.813013 41.8644068,21.2330508 L41.8644068,22.8629032 L72.1355932,22.8629032 L72.1355932,21.2330508 C72.1355932,15.813013 76.4549307,11.4018105 81.8392136,11.2538353 L82.1186441,11.25 L82.1186441,0 C87.6321308,-1.01281108e-15 92.1016949,4.46956411 92.1016949,9.98305085 L92.1016949,11.25 L92.1480755,11.2504464 C91.5010154,11.2629454 82.1186441,11.6254171 82.1186441,22.1370968 L82.1186441,22.1370968 L82.1186441,22.8629032 C87.6321308,22.8629032 92.1016949,27.3324673 92.1016949,32.8459541 L92.1016949,68.7669492 C92.1016949,74.186987 87.7823575,78.5981895 82.3980745,78.7461647 L82.2,78.749 L82.1186441,78.75 L82.1190575,77.1165669 C81.1779684,67.9751896 72.3535684,67.8642657 72.1395518,67.8629198 L41.9419054,67.8629198 C41.7158256,67.8643416 31.8813559,67.9880423 31.8813559,78.75 L31.8813559,78.75 C26.3678692,78.75 21.8983051,74.2804359 21.8983051,68.7669492 L21.8983051,32.8459541 C21.8983051,27.4259163 26.2176425,23.0147138 31.6019255,22.8667385 L31.8813559,22.8629032 L31.8827922,20.5136335 C30.9700737,11.5871012 22.545322,11.262267 21.9333817,11.2504464 L21.8983051,11.25 Z M20.9322034,34.1129032 L20.9322034,56.25 L20.9785839,56.2504464 C20.3391363,56.2627984 11.1687052,56.6169368 10.9530188,66.7702946 L10.9491525,67.1370968 L10.9491525,44.0959541 C10.9491525,38.6759163 15.26849,34.2647138 20.652773,34.1167385 L20.9322034,34.1129032 Z M93.0677966,34.1129032 C98.5812834,34.1129032 103.050847,38.5824673 103.050847,44.0959541 L103.050847,56.25 L103.132305,56.25 L103.132305,67.1370968 C103.132305,56.6254171 93.7499333,56.2629454 93.1028732,56.2504464 L93.0677966,56.25 L93.0677966,34.1129032 Z M82.1186441,33.75 L72.1355932,33.75 L72.1355932,45.3629032 L82.1186441,45.3629032 L82.1186441,33.75 Z M41.8644068,33.75 L31.8813559,33.75 L31.8813559,45.3629032 L41.8644068,45.3629032 L41.8644068,33.75 Z" id="Combined-Shape"></path>
            </g>
        </g>
    </g>
</svg>